<?xml version="1.0" encoding="UTF-8" standalone="no"?>
<!-- Generator: Adobe Illustrator 16.0.0, SVG Export Plug-In . SVG Version: 6.00 Build 0)  -->

<svg
   xmlns:dc="http://purl.org/dc/elements/1.1/"
   xmlns:cc="http://creativecommons.org/ns#"
   xmlns:rdf="http://www.w3.org/1999/02/22-rdf-syntax-ns#"
   xmlns:svg="http://www.w3.org/2000/svg"
   xmlns="http://www.w3.org/2000/svg"
   xmlns:sodipodi="http://sodipodi.sourceforge.net/DTD/sodipodi-0.dtd"
   xmlns:inkscape="http://www.inkscape.org/namespaces/inkscape"
   version="1.1"
   id="Capa_1"
   x="0px"
   y="0px"
   width="200"
   height="200"
   viewBox="0 0 200 200"
   xml:space="preserve"
   inkscape:version="0.91 r13725"
   sodipodi:docname="logo.svg"><metadata
     id="metadata71"><rdf:RDF><cc:Work
         rdf:about=""><dc:format>image/svg+xml</dc:format><dc:type
           rdf:resource="http://purl.org/dc/dcmitype/StillImage" /><dc:title></dc:title></cc:Work></rdf:RDF></metadata><defs
     id="defs69" /><sodipodi:namedview
     pagecolor="#ffffff"
     bordercolor="#666666"
     borderopacity="1"
     objecttolerance="10"
     gridtolerance="10"
     guidetolerance="10"
     inkscape:pageopacity="0"
     inkscape:pageshadow="2"
     inkscape:window-width="1920"
     inkscape:window-height="1024"
     id="namedview67"
     showgrid="false"
     inkscape:zoom="0.8939394"
     inkscape:cx="-92.94194"
     inkscape:cy="-98.67884"
     inkscape:window-x="0"
     inkscape:window-y="30"
     inkscape:window-maximized="1"
     inkscape:current-layer="g3"
     fit-margin-top="0"
     fit-margin-left="0"
     fit-margin-right="0"
     fit-margin-bottom="0" /><g
     id="g3"
     transform="translate(83.5,83.5)"><g
       id="g4845"
       transform="matrix(6.0606061,0,0,6.0606061,-83.5,-83.5)"><path
         style="fill:#5a6378;fill-opacity:1"
         d="M 28.5,0 4.5,0 C 2.019,0 0,2.019 0,4.5 l 0,24 C 0,30.98 2.019,33 4.5,33 l 24,0 c 2.48,0 4.5,-2.02 4.5,-4.5 l 0,-24 C 33,2.019 30.98,0 28.5,0 Z m 3,28.5 c 0,1.648 -1.35,3 -3,3 l -24,0 c -1.65,0 -3,-1.352 -3,-3 l 0,-24 c 0,-1.649 1.35,-3 3,-3 l 24,0 c 1.65,0 3,1.351 3,3 l 0,24 z"
         id="path7"
         inkscape:connector-curvature="0" /><circle
         style="fill:#7fd13b;fill-opacity:1"
         cx="9.25"
         cy="4.7729998"
         r="1.273"
         id="circle9" /><circle
         style="fill:#f0ad00;fill-opacity:1"
         cx="16.5"
         cy="4.7729998"
         r="1.273"
         id="circle11" /><circle
         style="fill:#60b5cc;fill-opacity:1"
         cx="23.75"
         cy="4.7729998"
         r="1.273"
         id="circle13" /><rect
         style="fill:#7fd13b;fill-opacity:1"
         x="11.134"
         y="12.902"
         width="4.5960002"
         height="4.0879998"
         id="rect15" /><rect
         style="fill:#7fd13b;fill-opacity:1"
         x="17.271"
         y="12.902"
         width="4.5949998"
         height="4.0879998"
         id="rect17" /><rect
         style="fill:#60b5cc;fill-opacity:1"
         x="23.403999"
         y="12.902"
         width="4.5960002"
         height="4.0879998"
         id="rect19" /><rect
         style="fill:#5a6378;fill-opacity:1"
         x="5"
         y="18.358999"
         width="4.5949998"
         height="4.086"
         id="rect21" /><rect
         style="fill:#f0ad00;fill-opacity:1"
         x="11.134"
         y="18.358999"
         width="4.5960002"
         height="4.086"
         id="rect23" /><rect
         style="fill:#7fd13b;fill-opacity:1"
         x="17.271"
         y="18.358999"
         width="4.5949998"
         height="4.086"
         id="rect25" /><rect
         style="fill:#60b5cc;fill-opacity:1"
         x="23.403999"
         y="18.358999"
         width="4.5960002"
         height="4.086"
         id="rect27" /><rect
         style="fill:#5a6378;fill-opacity:1"
         x="5"
         y="23.816"
         width="4.5949998"
         height="4.086"
         id="rect29" /><rect
         style="fill:#60b5cc;fill-opacity:1"
         x="11.134"
         y="23.816"
         width="4.5960002"
         height="4.086"
         id="rect31" /><rect
         style="fill:#60b5cc;fill-opacity:1"
         x="17.271"
         y="23.816"
         width="4.5949998"
         height="4.086"
         id="rect33" /><rect
         style="fill:#f0ad00;fill-opacity:1"
         x="23.403999"
         y="23.816"
         width="4.5960002"
         height="4.086"
         id="rect35" /></g></g><g
     id="g37"
     transform="translate(83.5,83.5)" /><g
     id="g39"
     transform="translate(83.5,83.5)" /><g
     id="g41"
     transform="translate(83.5,83.5)" /><g
     id="g43"
     transform="translate(83.5,83.5)" /><g
     id="g45"
     transform="translate(83.5,83.5)" /><g
     id="g47"
     transform="translate(83.5,83.5)" /><g
     id="g49"
     transform="translate(83.5,83.5)" /><g
     id="g51"
     transform="translate(83.5,83.5)" /><g
     id="g53"
     transform="translate(83.5,83.5)" /><g
     id="g55"
     transform="translate(83.5,83.5)" /><g
     id="g57"
     transform="translate(83.5,83.5)" /><g
     id="g59"
     transform="translate(83.5,83.5)" /><g
     id="g61"
     transform="translate(83.5,83.5)" /><g
     id="g63"
     transform="translate(83.5,83.5)" /><g
     id="g65"
     transform="translate(83.5,83.5)" /></svg>